<?xml version="1.0" encoding="UTF-8" standalone="no"?>
<!-- Created with Inkscape (http://www.inkscape.org/) -->

<svg
   width="179.00491mm"
   height="126.65878mm"
   viewBox="0 0 179.00491 126.65878"
   version="1.1"
   id="svg5"
   xml:space="preserve"
   inkscape:version="1.2.2 (732a01da63, 2022-12-09)"
   sodipodi:docname="MORS_logo.svg"
   inkscape:export-filename="rysunek33.png"
   inkscape:export-xdpi="150"
   inkscape:export-ydpi="150"
   xmlns:inkscape="http://www.inkscape.org/namespaces/inkscape"
   xmlns:sodipodi="http://sodipodi.sourceforge.net/DTD/sodipodi-0.dtd"
   xmlns="http://www.w3.org/2000/svg"
   xmlns:svg="http://www.w3.org/2000/svg"><sodipodi:namedview
     id="namedview7"
     pagecolor="#ffffff"
     bordercolor="#000000"
     borderopacity="0.25"
     inkscape:showpageshadow="2"
     inkscape:pageopacity="0.0"
     inkscape:pagecheckerboard="0"
     inkscape:deskcolor="#d1d1d1"
     inkscape:document-units="mm"
     showgrid="true"
     inkscape:zoom="1.1483681"
     inkscape:cx="283.0103"
     inkscape:cy="276.04389"
     inkscape:window-width="1851"
     inkscape:window-height="1057"
     inkscape:window-x="3832"
     inkscape:window-y="1072"
     inkscape:window-maximized="1"
     inkscape:current-layer="layer8"><inkscape:grid
       type="xygrid"
       id="grid2007"
       originx="-19.578163"
       originy="-104.00546" /></sodipodi:namedview><defs
     id="defs2"><linearGradient
       id="linearGradient3841"
       inkscape:swatch="solid"><stop
         style="stop-color:#e6e6e6;stop-opacity:1;"
         offset="0"
         id="stop3839" /></linearGradient></defs><g
     inkscape:groupmode="layer"
     id="g1363"
     inkscape:label="Body"
     style="display:inline;fill:#b0b0b0;fill-opacity:1"
     transform="translate(-19.578164,-104.00546)"><path
       style="display:inline;fill:#ffffff;fill-opacity:1;stroke:#000000;stroke-width:2.6;stroke-dasharray:none;paint-order:markers stroke fill"
       d="m 49.017232,195.78829 c -0.467723,0 -21.328108,0.98222 -27.034313,14.59292 -5.706204,13.6107 12.534941,2.19829 12.534941,2.19829 0,0 7.551046,-3.01826 6.407785,3.18051 -0.952385,5.16384 -20.841701,1.49026 -16.084069,7.75196 20.665669,20.85142 37.993633,-20.63553 51.724461,-20.38045 10.102789,1.12253 29.144373,1.34347 29.144373,1.34347 -0.44386,4.10669 -4.90509,4.94894 -8.735825,9.01659 -7.401463,7.85923 18.678035,-1.23298 18.678035,-1.23298 6.77779,-2.94086 12.86497,-6.06557 14.76266,-9.72871 0.79471,-1.53405 4.79374,-4.01393 6.81246,-4.49449 7.92015,-1.88543 16.31896,-1.71544 19.08954,2.19097 7.70074,10.03096 13.37671,6.22641 23.078,6.05119 14.38811,0.48183 22.02547,-4.5593 15.57765,-5.5175 -21.56106,-3.20415 -26.55625,-4.4665 -26.16877,-25.20902 0.4058,-1.30372 -1.49403,-15.60494 -3.64216,-34.04363 -1.10407,-9.47695 -0.0535,-20.99024 -7.47034,-28.79491 -15.2218,-16.017853 -37.32829,-2.7066 -37.33229,7.94571 -5.86094,5.81262 -5.1664,12.65872 -5.1664,12.65872 0,0 -6.23875,1.66361 -8.3945,9.59612 0,0 -11.6263,1.85976 -17.865969,17.89193 0,0 -22.654377,5.81637 -39.984585,35.11898"
       id="path1361"
       sodipodi:nodetypes="cscccscscssccscssccccc"
       inkscape:label="path1361"
       inkscape:export-filename=".\path1361.tiff"
       inkscape:export-xdpi="96"
       inkscape:export-ydpi="96" /></g><g
     inkscape:groupmode="layer"
     id="layer5"
     inkscape:label="Eyes"
     transform="translate(-20.140404,-104.7496)"
     style="display:inline"><circle
       style="display:inline;fill:#000000;fill-opacity:1;stroke:#000000;stroke-width:0.499999;paint-order:markers stroke fill"
       id="path1775"
       cx="134.50754"
       cy="118.53333"
       r="2.5466146" /><circle
       style="display:inline;fill:#000000;fill-opacity:1;stroke:#000000;stroke-width:0.499999;paint-order:markers stroke fill"
       id="path1775-6"
       cx="150.0849"
       cy="117.21042"
       r="2.5466146" /><circle
       style="fill:#ffffff;fill-opacity:1;stroke:#000000;stroke-width:0.616308;paint-order:markers stroke fill"
       id="path1803"
       cx="133.39423"
       cy="117.49168"
       r="0.80713081" /><circle
       style="fill:#ffffff;fill-opacity:1;stroke:#000000;stroke-width:0.616308;paint-order:markers stroke fill"
       id="path1803-8"
       cx="149.13304"
       cy="115.90143"
       r="0.80713081" /></g><g
     inkscape:groupmode="layer"
     id="layer7"
     inkscape:label="Eyebrows"
     transform="translate(-19.578164,-104.00546)"
     style="display:inline"><path
       style="fill:#000000;fill-opacity:1;stroke:#000000;stroke-width:0.499999;paint-order:markers stroke fill"
       d="m 129.28203,115.63946 c 0.56484,-2.82396 5.26834,-4.77396 5.72162,-4.71289 1.74515,0.23514 2.70042,1.77463 -1.45653,1.75539 -1.68025,-0.008 -4.26509,2.9575 -4.26509,2.9575 z"
       id="path2019"
       sodipodi:nodetypes="cssc" /><path
       style="fill:#000000;fill-opacity:1;stroke:#000000;stroke-width:0.499999;paint-order:markers stroke fill"
       d="m 149.57482,112.0848 c -0.8826,0.34071 -2.92317,-2.02646 -0.6806,-2.15043 1.77737,-0.0983 3.78361,3.13848 4.00779,3.40964 -2.00329,-0.32622 -1.29654,-0.98601 -3.32719,-1.25921 z"
       id="path2021"
       sodipodi:nodetypes="cscc" /></g><g
     inkscape:groupmode="layer"
     id="layer4"
     inkscape:label="Tusks"
     style="display:inline;fill:none"
     transform="translate(-19.578164,-104.00546)"><path
       style="fill:#ffffff;fill-opacity:1;stroke:#000000;stroke-width:2.6;stroke-dasharray:none;paint-order:markers stroke fill"
       d="m 134.72929,150.58367 c 0,0 3.43764,9.9658 -1.70925,1.33233 -4.90791,-8.2326 -1.12253,-17.77343 -1.12253,-17.77343 l 4.49013,0.93545 c 0,0 -2.31088,4.21406 -2.13708,10.17705 0.0586,2.01071 -0.0874,2.59229 0.47873,5.3286 z"
       id="path1650"
       sodipodi:nodetypes="csccsc" /><path
       style="fill:#ffffff;fill-opacity:1;stroke:#000000;stroke-width:2.9;stroke-dasharray:none;paint-order:markers stroke fill"
       d="m 153.78689,147.14524 c 0,0 -0.53029,3.05137 -0.74943,5.54052 -0.29954,3.40243 -0.0177,5.7544 2.99449,-2.17293 4.01248,-10.55981 0.39371,-12.32571 0.46772,-18.33469 0.0671,-5.44528 -4.00467,-2.16654 -2.89793,-0.50642 0,0 1.02704,6.77393 0.18515,15.47356 z"
       id="path1652"
       sodipodi:nodetypes="csssccc" /></g><g
     inkscape:groupmode="layer"
     id="layer3"
     inkscape:label="Face"
     style="display:inline"
     transform="translate(-19.578164,-104.00546)"><path
       style="fill:#ffffff;fill-opacity:1;stroke:#000000;stroke-width:3;stroke-dasharray:none;paint-order:markers stroke fill"
       d="m 125.24714,137.91407 c -3.40555,-5.18308 -1.05715,-12.06221 5.55124,-13.86676 6.74105,-1.84077 13.83357,-4.24289 22.70133,-1.42518 4.83262,1.09444 9.32964,8.21017 6.67242,15.58959 -0.85977,-4.8474 -1.48043,-5.6128 -2.38124,-0.33073 -1.87856,-3.76718 -1.05797,-1.04384 -2.54662,0.85989 -0.31153,-3.68846 -0.94441,-4.09531 -3.24114,-0.62838 -0.10549,-2.75556 1.25949,-4.57363 -1.22371,-1.4552 -1.41213,-4.80058 -0.84475,-1.13792 -2.64583,-0.29767 0,0 1.78594,-3.00963 -5.29166,-2.34817 -1.39759,0.13061 -2.86358,-0.78975 -3.11026,0.66559 -0.52261,3.08325 -1.02386,2.70785 -1.02386,2.70785 -0.70312,-1.74498 -1.42969,-2.87084 -2.97656,0.0331 -1.31966,-2.94388 -1.01565,-0.977 -1.62057,1.19062 l -1.55443,-2.18281 c 0,0 -1.73501,2.54634 -1.71979,2.11667 0.0857,-2.41993 -2.16264,-2.45952 -2.14974,-2.4474 l -0.79375,1.48828 -1.05833,-1.9513 z"
       id="path1509"
       sodipodi:nodetypes="cscccccccssccccscccc" /></g><g
     inkscape:groupmode="layer"
     id="layer6"
     inkscape:label="Nose"
     transform="translate(-19.578164,-104.00546)"
     style="display:inline"><path
       style="fill:#000000;fill-opacity:1;stroke:#000000;stroke-width:0.499999;paint-order:markers stroke fill"
       d="m 141.30742,125.69814 c 0.96473,-0.50333 1.49671,1.30961 1.49671,1.30961 0.86134,-3.0931 -1.24192,-3.3188 -2.44276,-2.65744 -0.80852,0.44529 -0.50167,1.91348 0.94605,1.34783 z"
       id="path2010"
       sodipodi:nodetypes="ccsc" /><path
       style="fill:#000000;fill-opacity:1;stroke:#000000;stroke-width:0.499999;paint-order:markers stroke fill"
       d="m 145.21222,127.27967 c -0.74836,-1.12253 -0.92628,-3.98749 0.81851,-3.39098 2.73617,0.93545 -0.37419,2.03458 -0.37419,2.03458 z"
       id="path2016"
       sodipodi:nodetypes="cscc" /></g><g
     inkscape:groupmode="layer"
     id="layer8"
     inkscape:label="outline"
     transform="translate(-19.578164,-104.00546)"
     style="display:inline"><path
       style="fill:none;fill-opacity:1;stroke:#000000;stroke-width:1.4;stroke-dasharray:none;paint-order:markers stroke fill"
       d="m 114.53036,133.03608 c 0,0 -2.24506,7.01583 -0.37418,14.59292"
       id="path2050"
       inkscape:label="path2050" /><path
       style="fill:none;fill-opacity:1;stroke:#000000;stroke-width:1.3;stroke-dasharray:none;paint-order:markers stroke fill"
       d="m 106.23232,142.53886 c 0,0 -4.67722,15.809 -0.18709,27.12786"
       id="path2052" /><path
       style="fill:none;fill-opacity:1;stroke:#000000;stroke-width:1.4;stroke-dasharray:none;paint-order:markers stroke fill"
       d="m 88.415447,160.25652 c 0,0 -4.583674,19.64431 1.777341,21.98292"
       id="path2054" /><path
       style="fill:none;fill-opacity:1;stroke:#000000;stroke-width:1.6;stroke-dasharray:none;stroke-opacity:1;paint-order:markers stroke fill"
       d="m 95.51825,215.74535 c 0,0 2.850539,-1.58333 4.5307,-2.87443"
       id="path2141"
       sodipodi:nodetypes="cc"
       inkscape:export-filename=".\path1361.tiff"
       inkscape:export-xdpi="96"
       inkscape:export-ydpi="96" /><path
       style="fill:none;fill-opacity:1;stroke:#000000;stroke-width:1.6;stroke-dasharray:none;stroke-opacity:1;paint-order:markers stroke fill"
       d="m 104.86631,216.14036 c 1.86194,-1.43261 5.91569,-2.83275 5.95589,-4.22316"
       id="path2143"
       sodipodi:nodetypes="cc" /><path
       style="fill:none;fill-opacity:1;stroke:#000000;stroke-width:1.6;stroke-dasharray:none;stroke-opacity:1;paint-order:markers stroke fill"
       d="m 196.43674,203.93917 c 0,0 -6.26747,-2.29184 -10.10278,-1.59026"
       id="path2145"
       sodipodi:nodetypes="cc" /><path
       style="fill:none;fill-opacity:1;stroke:#000000;stroke-width:1.6;stroke-dasharray:none;stroke-opacity:1;paint-order:markers stroke fill"
       d="m 189.47521,206.38619 c -5.09816,-2.80633 -10.38342,-2.3386 -10.38342,-2.3386"
       id="path2147"
       sodipodi:nodetypes="cc" /><path
       style="fill:none;fill-opacity:1;stroke:#000000;stroke-width:1.6;stroke-dasharray:none;stroke-opacity:1;paint-order:markers stroke fill"
       d="m 176.51532,206.87731 c 0.28334,-1.07671 -4.29121,-2.45839 -6.59488,-2.01121"
       id="path2149"
       sodipodi:nodetypes="cc" /><path
       style="fill:none;fill-opacity:1;stroke:#000000;stroke-width:1.6;stroke-dasharray:none;stroke-opacity:1;paint-order:markers stroke fill"
       d="m 98.402055,217.24048 c 0.676107,-0.0732 5.958185,-3.81026 6.395245,-4.86447"
       id="path2151"
       sodipodi:nodetypes="cc" /><path
       style="display:inline;fill:none;fill-opacity:1;stroke:#000000;stroke-width:1.6;stroke-dasharray:none;stroke-opacity:1;paint-order:markers stroke fill"
       d="m 21.769803,208.93268 c 0.846524,0.20205 4.262805,-3.30532 8.428699,-2.92392"
       id="path2165"
       sodipodi:nodetypes="cc" /><path
       style="display:inline;fill:none;fill-opacity:1;stroke:#000000;stroke-width:1.6;stroke-dasharray:none;stroke-opacity:1;paint-order:markers stroke fill"
       d="m 20.359217,213.28367 c 0,0 4.200261,-2.54661 8.896615,-3.43958"
       id="path2167"
       sodipodi:nodetypes="cc" /><path
       style="display:inline;fill:none;fill-opacity:1;stroke:#000000;stroke-width:1.6;stroke-dasharray:none;stroke-opacity:1;paint-order:markers stroke fill"
       d="m 21.963419,217.39395 c 0,0 2.746833,-2.39243 6.532054,-3.43472"
       id="path2169"
       sodipodi:nodetypes="cc" /><path
       style="display:inline;fill:none;fill-opacity:1;stroke:#000000;stroke-width:1.6;stroke-dasharray:none;stroke-opacity:1;paint-order:markers stroke fill"
       d="m 23.910608,222.73605 c 0,0 3.654414,0.88908 9.359135,-1.83506"
       id="path2171"
       sodipodi:nodetypes="cc" /><path
       style="display:inline;fill:none;fill-opacity:1;stroke:#000000;stroke-width:1.6;stroke-dasharray:none;stroke-opacity:1;paint-order:markers stroke fill"
       d="m 27.518012,226.71195 c 0,0 5.713257,-0.35772 8.10196,-1.89787"
       id="path2173"
       sodipodi:nodetypes="cc" /><path
       style="display:inline;fill:none;fill-opacity:1;stroke:#000000;stroke-width:1.6;stroke-dasharray:none;stroke-opacity:1;paint-order:markers stroke fill"
       d="m 33.409412,229.4404 c 0,0 3.957235,-1.10138 5.839471,-2.78988"
       id="path2175"
       sodipodi:nodetypes="cc" /></g></svg>
